<svg width="640" height="480" xmlns="http://www.w3.org/2000/svg" xmlns:xlink="http://www.w3.org/1999/xlink">
 <!-- Created with SVG-edit - http://svg-edit.googlecode.com/ -->
 <defs>
  <svg id="svg_1" height="137" width="137">
   <title>Cool smiley</title>
   <path id="svg_1" d="m32.186821,97.716743q36.315903,24.940758 72.545853,0m-64.675423,-49.255764c0,-3.8554 3.125259,-6.980789 6.980679,-6.980789c3.854492,0 6.978722,3.125389 6.978722,6.980789c0,3.853462 -3.124229,6.978672 -6.978722,6.978672c-3.855419,0 -6.980679,-3.12521 -6.980679,-6.978672m42.930466,0c0,-3.8554 3.12529,-6.980789 6.979637,-6.980789c3.854393,0 6.979706,3.125389 6.979706,6.980789c0,3.853462 -3.125313,6.978672 -6.979706,6.978672c-3.854347,0 -6.979637,-3.12521 -6.979637,-6.978672m-81.485957,20.035999l0,0c0,-37.001968 29.99679,-66.998909 67.000948,-66.998909c37.003029,0 66.999977,29.99695 66.999977,66.998909c0,37.004089 -29.996948,67.001007 -66.999977,67.001007c-37.004158,0 -67.000948,-29.996918 -67.000948,-67.001007zm0,0l0,0c0,-37.001968 29.99679,-66.998909 67.000948,-66.998909c37.003029,0 66.999977,29.99695 66.999977,66.998909c0,37.004089 -29.996948,67.001007 -66.999977,67.001007c-37.004158,0 -67.000948,-29.996918 -67.000948,-67.001007z" stroke-width="3" stroke="#000000" fill="url(#svg_4)"/>
   <path fill="#000000" stroke-width="3" d="m23.84005,41.034451l17.570518,0l5.429371,-19.67914l5.429409,19.67914l17.570602,0l-14.214882,12.162418l5.429821,19.67939l-14.214951,-12.162807l-14.21489,12.162807l5.429909,-19.67939l-14.214909,-12.162418l0,0z" id="svg_5"/>
   <path fill="#000000" stroke-width="3" d="m65.84005,41.034451l17.570518,0l5.429375,-19.67914l5.429405,19.67914l17.570602,0l-14.214874,12.162418l5.429825,19.67939l-14.214958,-12.1628l-14.214905,12.1628l5.429924,-19.67939l-14.214912,-12.162418l0,0z" id="svg_6"/>
   <defs>
    <linearGradient id="svg_4" x1="0.44531" y1="0.94922" x2="0.46484" y2="0.25391">
     <stop offset="0" stop-color="#ff0000"/>
     <stop offset="1" stop-color="#ffff00"/>
    </linearGradient>
   </defs>
  </svg>
 </defs>
 <g>
  <title>Слой 1</title>
  <use x="0" y="0" transform="matrix(4.682565180415054,0,0,3.5208259125592463,-1.7635266477005302,-1.1719299682982864) " id="svg_2" xlink:href="#svg_1"/>
 </g>
</svg>